<?xml version="1.0" standalone="no"?>
<!DOCTYPE svg PUBLIC "-//W3C//DTD SVG 20010904//EN"
 "http://www.w3.org/TR/2001/REC-SVG-20010904/DTD/svg10.dtd">
<svg version="1.0" xmlns="http://www.w3.org/2000/svg"
 width="250.000000pt" height="250.000000pt" viewBox="0 0 250.000000 250.000000"
 preserveAspectRatio="xMidYMid meet">
<metadata>
Created by potrace 1.14, written by Peter Selinger 2001-2017
</metadata>
<g transform="translate(0.000000,250.000000) scale(0.100000,-0.100000)"
fill="#000000" stroke="none">
<path d="M0 1250 l0 -1250 1250 0 1250 0 0 1250 0 1250 -1250 0 -1250 0 0
-1250z m1666 770 l429 -210 3 -538 2 -538 -435 -214 -435 -213 -438 214 -437
215 -3 535 -2 534 432 212 c238 116 438 212 444 212 7 1 205 -94 440 -209z"/>
<path d="M843 1930 l-383 -189 0 -470 0 -470 356 -175 c196 -97 371 -181 389
-187 32 -12 44 -7 412 174 l378 187 3 470 2 471 -386 190 c-213 104 -387 189
-388 188 0 0 -173 -85 -383 -189z m614 -292 l53 -52 0 -118 0 -117 -35 -27
c-19 -14 -35 -30 -35 -34 0 -5 23 -25 50 -45 l50 -37 0 -106 0 -107 -72 -72
-72 -73 -233 0 -233 0 0 420 0 420 237 0 237 0 53 -52z"/>
<path d="M1070 1460 l0 -110 128 0 c165 1 172 6 172 113 0 105 -3 107 -168
107 l-132 0 0 -110z"/>
<path d="M1070 1105 l0 -125 138 0 138 0 27 28 c24 25 27 36 27 93 l0 66 -44
31 c-44 32 -45 32 -165 32 l-121 0 0 -125z"/>
</g>
</svg>
