<svg width="65" height="65" fill="none" xmlns="http://www.w3.org/2000/svg"><path d="M38.442 33.314c-1.185-.39-2.892-.306-5.119-.306h-8.948v11.68h9.57a17 17 0 003.15-.272 7.553 7.553 0 002.672-1.007c.716-.444 1.304-1.12 1.766-1.97.462-.852.693-1.847.693-2.961 0-1.304-.334-2.306-1.003-3.268-.669-.963-1.595-1.506-2.781-1.896zm-1.228-5.34c1.176-.35 2.063-.96 2.66-1.77.597-.812.895-1.845.895-3.07 0-1.161-.279-2.19-.836-3.074-.557-.884-1.351-1.226-2.386-1.552-1.034-.326-2.808-.227-5.322-.227h-7.85v10.157h8.423c2.053 0 3.524-.194 4.416-.464zm26.77-18.516a8.442 8.442 0 00-8.442-8.442H8.95A8.442 8.442 0 00.508 9.458V56.05a8.442 8.442 0 008.442 8.442h46.592a8.442 8.442 0 008.442-8.442V9.458zm-18 33.577c-.692 1.408-1.547 2.493-2.566 3.257-1.018.764-2.295 1.412-3.83 1.802-1.535.39-3.417.656-5.644.656h-14.14V13.71H33.73c2.673 0 4.816.31 6.431 1.018 1.616.708 2.88 1.775 3.796 3.247.914 1.472 1.372 3 1.372 4.606 0 1.496-.406 2.899-1.217 4.22-.812 1.32-2.037 2.383-3.675 3.195 2.115.62 3.742 1.677 4.88 3.172 1.137 1.496 1.706 3.261 1.706 5.298 0 1.639-.346 3.16-1.038 4.569z" fill="#5B4282"/></svg>