<?xml version="1.0" encoding="UTF-8"?>
<svg xmlns="http://www.w3.org/2000/svg" xmlns:xlink="http://www.w3.org/1999/xlink" width="25px" height="25px" viewBox="0 0 25 25" version="1.1">
<g id="surface1">
<path style=" stroke:none;fill-rule:nonzero;fill:rgb(0%,0%,0%);fill-opacity:1;" d="M 3.824219 0.285156 C 3.679688 0.308594 3.382812 0.414062 3.167969 0.519531 C 2.464844 0.855469 1.953125 1.507812 1.789062 2.265625 C 1.726562 2.558594 1.71875 3.90625 1.71875 12.214844 L 1.71875 21.835938 L 1.378906 21.835938 C 1.070312 21.835938 1.027344 21.847656 0.902344 21.96875 C 0.722656 22.152344 0.703125 22.332031 0.722656 23.464844 C 0.734375 24.515625 0.765625 24.617188 1.089844 24.707031 C 1.210938 24.746094 3.824219 24.757812 9.4375 24.746094 L 17.621094 24.734375 L 17.75 24.597656 L 17.882812 24.46875 L 17.882812 22.121094 L 17.75 21.992188 C 17.640625 21.878906 17.566406 21.855469 17.269531 21.835938 L 16.925781 21.8125 L 16.910156 17.671875 L 16.902344 13.539062 L 17.03125 13.570312 C 17.476562 13.683594 17.96875 14.128906 18.207031 14.640625 L 18.363281 14.960938 L 18.390625 16.710938 C 18.414062 18.328125 18.425781 18.480469 18.519531 18.769531 C 19.011719 20.253906 20.550781 21.117188 22.046875 20.734375 C 23.136719 20.453125 23.980469 19.589844 24.207031 18.503906 C 24.3125 17.992188 24.3125 9.671875 24.207031 9.261719 C 24.042969 8.648438 24.023438 8.625 21.042969 5.644531 L 18.242188 2.84375 L 17.898438 3.191406 L 17.546875 3.535156 L 20.351562 6.339844 L 20.351562 8.375 C 20.351562 9.496094 20.375 10.539062 20.398438 10.699219 C 20.5 11.3125 20.632812 11.488281 22.035156 12.90625 L 23.320312 14.203125 L 23.320312 15.972656 C 23.316406 18.011719 23.292969 18.308594 23.09375 18.730469 C 22.40625 20.207031 20.257812 20.195312 19.566406 18.722656 C 19.402344 18.371094 19.40625 18.445312 19.375 16.253906 C 19.359375 15.261719 19.335938 14.898438 19.277344 14.6875 C 19.003906 13.695312 18.164062 12.851562 17.21875 12.605469 L 16.902344 12.519531 L 16.902344 7.488281 C 16.902344 3.1875 16.890625 2.414062 16.828125 2.179688 C 16.613281 1.355469 16.019531 0.707031 15.195312 0.382812 L 14.867188 0.253906 L 9.476562 0.25 C 6.425781 0.246094 3.972656 0.261719 3.824219 0.285156 Z M 14.898438 1.324219 C 15.28125 1.476562 15.609375 1.789062 15.78125 2.15625 L 15.917969 2.460938 L 15.933594 12.121094 L 15.941406 21.785156 L 2.675781 21.785156 L 2.675781 12.359375 C 2.675781 6.960938 2.695312 2.808594 2.71875 2.636719 C 2.828125 1.878906 3.371094 1.332031 4.105469 1.238281 C 4.253906 1.21875 6.683594 1.203125 9.5 1.207031 L 14.625 1.214844 Z M 23.191406 9.285156 C 23.289062 9.492188 23.296875 9.558594 23.308594 11.113281 C 23.320312 12.011719 23.308594 12.734375 23.285156 12.734375 C 23.261719 12.734375 22.863281 12.351562 22.398438 11.882812 C 21.820312 11.300781 21.523438 10.964844 21.457031 10.816406 C 21.367188 10.617188 21.355469 10.511719 21.355469 8.972656 L 21.355469 7.34375 L 22.21875 8.207031 C 22.769531 8.757812 23.125 9.144531 23.191406 9.285156 Z M 16.902344 23.296875 L 16.902344 23.796875 L 1.71875 23.796875 L 1.71875 22.792969 L 16.902344 22.792969 Z M 16.902344 23.296875 "/>
<path style=" stroke:none;fill-rule:nonzero;fill:rgb(0%,0%,0%);fill-opacity:1;" d="M 4.601562 2.296875 C 4.257812 2.429688 3.910156 2.785156 3.78125 3.132812 C 3.679688 3.398438 3.675781 3.457031 3.691406 6.191406 L 3.703125 8.972656 L 3.816406 9.195312 C 3.960938 9.484375 4.203125 9.734375 4.507812 9.898438 L 4.757812 10.027344 L 13.859375 10.027344 L 14.132812 9.894531 C 14.421875 9.75 14.679688 9.492188 14.828125 9.195312 C 14.910156 9.035156 14.914062 8.816406 14.929688 6.199219 C 14.941406 3.023438 14.945312 3.105469 14.59375 2.699219 C 14.488281 2.578125 14.285156 2.421875 14.152344 2.347656 L 13.90625 2.21875 L 9.382812 2.210938 C 4.925781 2.199219 4.851562 2.199219 4.601562 2.296875 Z M 13.667969 3.222656 C 14 3.359375 13.984375 3.230469 13.96875 6.167969 L 13.957031 8.816406 L 13.820312 8.929688 L 13.6875 9.046875 L 4.941406 9.046875 L 4.820312 8.925781 C 4.753906 8.859375 4.6875 8.738281 4.667969 8.65625 C 4.652344 8.570312 4.640625 7.402344 4.640625 6.054688 C 4.640625 3.824219 4.648438 3.59375 4.726562 3.441406 C 4.777344 3.324219 4.859375 3.253906 4.972656 3.214844 C 5.097656 3.171875 6.214844 3.160156 9.324219 3.160156 C 12.824219 3.152344 13.527344 3.164062 13.667969 3.222656 Z M 13.667969 3.222656 "/>
</g>
</svg>
