<?xml version="1.0" encoding="UTF-8"?>
<svg xmlns="http://www.w3.org/2000/svg" xmlns:xlink="http://www.w3.org/1999/xlink" width="25px" height="25px" viewBox="0 0 25 25" version="1.1">
<g id="surface1">
<path style=" stroke:none;fill-rule:nonzero;fill:rgb(0%,0%,0%);fill-opacity:1;" d="M 11.585938 0.316406 C 10.25 0.574219 9.296875 1.082031 8.359375 2.023438 C 7.414062 2.976562 6.832031 4.1875 6.683594 5.511719 C 6.636719 5.917969 6.601562 6.035156 6.480469 6.175781 C 5.796875 6.988281 6.003906 8.121094 6.953125 8.722656 L 7.222656 8.898438 L 7.25 9.949219 C 7.269531 10.753906 7.304688 11.089844 7.378906 11.386719 C 7.652344 12.367188 8.15625 13.210938 8.886719 13.90625 C 9.605469 14.59375 10.289062 14.988281 11.210938 15.257812 C 11.574219 15.367188 11.769531 15.382812 12.492188 15.382812 C 13.476562 15.382812 13.882812 15.296875 14.710938 14.890625 C 15.324219 14.59375 15.800781 14.238281 16.324219 13.675781 C 16.839844 13.128906 17.21875 12.503906 17.453125 11.8125 C 17.695312 11.101562 17.75 10.722656 17.75 9.738281 L 17.75 8.902344 L 18.023438 8.730469 C 18.367188 8.503906 18.609375 8.234375 18.777344 7.863281 C 19.015625 7.34375 18.898438 6.652344 18.492188 6.171875 C 18.382812 6.039062 18.347656 5.90625 18.292969 5.492188 C 18.042969 3.433594 16.8125 1.738281 14.855469 0.765625 C 14.011719 0.34375 12.511719 0.132812 11.585938 0.316406 Z M 13.421875 1.492188 L 13.613281 1.53125 L 13.640625 2.429688 C 13.667969 3.40625 13.703125 3.523438 13.96875 3.660156 C 14.171875 3.765625 14.316406 3.765625 14.523438 3.65625 C 14.769531 3.53125 14.847656 3.289062 14.847656 2.621094 C 14.847656 2.304688 14.867188 2.046875 14.894531 2.046875 C 14.949219 2.046875 15.507812 2.457031 15.761719 2.683594 C 16.402344 3.269531 16.925781 4.292969 17.113281 5.316406 L 17.148438 5.496094 L 7.839844 5.496094 L 7.867188 5.316406 C 8.109375 3.980469 8.789062 2.902344 9.828125 2.199219 C 9.953125 2.113281 10.070312 2.046875 10.097656 2.046875 C 10.121094 2.046875 10.136719 2.304688 10.136719 2.621094 C 10.136719 3 10.164062 3.269531 10.210938 3.386719 C 10.292969 3.578125 10.535156 3.746094 10.738281 3.746094 C 10.941406 3.746094 11.183594 3.578125 11.265625 3.386719 C 11.320312 3.25 11.339844 2.964844 11.339844 2.375 C 11.339844 1.738281 11.355469 1.542969 11.410156 1.519531 C 11.722656 1.40625 12.90625 1.382812 13.421875 1.492188 Z M 17.476562 6.746094 C 17.695312 6.855469 17.789062 7.105469 17.726562 7.4375 C 17.648438 7.851562 17.996094 7.824219 12.492188 7.824219 C 6.984375 7.824219 7.332031 7.851562 7.253906 7.4375 C 7.195312 7.105469 7.285156 6.855469 7.507812 6.746094 C 7.6875 6.652344 8.039062 6.648438 12.492188 6.648438 C 16.945312 6.648438 17.292969 6.652344 17.476562 6.746094 Z M 16.582031 9.917969 C 16.542969 11 16.445312 11.460938 16.101562 12.140625 C 15.765625 12.789062 15.054688 13.492188 14.40625 13.804688 C 13.71875 14.144531 13.351562 14.226562 12.519531 14.226562 C 11.664062 14.234375 11.214844 14.136719 10.574219 13.800781 C 9.8125 13.410156 9.265625 12.863281 8.875 12.117188 C 8.535156 11.46875 8.4375 10.996094 8.398438 9.917969 L 8.367188 9.003906 L 16.613281 9.003906 Z M 16.582031 9.917969 "/>
<path style=" stroke:none;fill-rule:nonzero;fill:rgb(0%,0%,0%);fill-opacity:1;" d="M 8.148438 15.472656 C 7.144531 15.582031 5.933594 15.976562 5.042969 16.480469 C 4.078125 17.027344 2.964844 18.023438 2.339844 18.898438 C 1.695312 19.808594 1.191406 20.972656 0.949219 22.09375 C 0.878906 22.4375 0.851562 22.804688 0.851562 23.5 L 0.851562 24.445312 L 1.003906 24.597656 L 1.152344 24.75 L 23.828125 24.75 L 23.976562 24.597656 C 24.125 24.449219 24.128906 24.433594 24.148438 23.703125 C 24.203125 21.546875 23.339844 19.460938 21.753906 17.871094 C 20.367188 16.492188 18.628906 15.65625 16.730469 15.472656 C 15.890625 15.390625 15.871094 15.394531 15.460938 16.101562 C 14.378906 17.957031 11.703125 18.335938 10.125 16.847656 C 9.882812 16.617188 9.648438 16.324219 9.496094 16.058594 C 9.355469 15.828125 9.203125 15.597656 9.148438 15.546875 C 9.019531 15.425781 8.738281 15.410156 8.148438 15.472656 Z M 8.632812 16.984375 C 9.054688 17.75 10.125 19.601562 11.0625 21.183594 C 12.042969 22.847656 12.179688 23.023438 12.480469 23.023438 C 12.792969 23.023438 12.914062 22.886719 13.628906 21.667969 C 14.882812 19.550781 15.425781 18.621094 15.96875 17.652344 C 16.257812 17.125 16.515625 16.675781 16.542969 16.648438 C 16.621094 16.570312 17.667969 16.769531 18.296875 16.976562 C 20.453125 17.695312 22.113281 19.429688 22.726562 21.609375 C 22.863281 22.085938 23.007812 22.996094 23.007812 23.363281 L 23.007812 23.628906 L 1.957031 23.628906 L 1.996094 23.089844 C 2.21875 19.847656 4.542969 17.269531 7.753906 16.703125 C 8.441406 16.582031 8.40625 16.566406 8.632812 16.984375 Z M 13.277344 19.980469 C 12.859375 20.691406 12.507812 21.273438 12.492188 21.273438 C 12.453125 21.273438 10.960938 18.730469 10.984375 18.707031 C 10.988281 18.699219 11.144531 18.730469 11.320312 18.78125 C 11.828125 18.921875 12.820312 18.949219 13.367188 18.839844 C 13.625 18.785156 13.867188 18.726562 13.914062 18.699219 C 13.957031 18.671875 14.003906 18.660156 14.011719 18.671875 C 14.023438 18.679688 13.695312 19.273438 13.277344 19.980469 Z M 13.277344 19.980469 "/>
</g>
</svg>
