<?xml version="1.0" encoding="UTF-8"?>
<svg xmlns="http://www.w3.org/2000/svg" xmlns:xlink="http://www.w3.org/1999/xlink" width="25px" height="25px" viewBox="0 0 25 25" version="1.1">
<g id="surface1">
<path style=" stroke:none;fill-rule:nonzero;fill:rgb(0%,0%,0%);fill-opacity:1;" d="M 10.546875 3.125 C 9.898438 3.125 9.375 3.648438 9.375 4.296875 C 9.375 4.945312 9.898438 5.46875 10.546875 5.46875 L 11.328125 5.46875 L 11.328125 7.09375 C 5.839844 7.675781 1.5625 12.324219 1.5625 17.96875 L 23.4375 17.96875 C 23.4375 12.324219 19.160156 7.675781 13.671875 7.09375 L 13.671875 5.46875 L 14.453125 5.46875 C 15.101562 5.46875 15.625 4.945312 15.625 4.296875 C 15.625 3.648438 15.101562 3.125 14.453125 3.125 Z M 1.171875 19.53125 C 0.523438 19.53125 0 20.054688 0 20.703125 C 0 21.351562 0.523438 21.875 1.171875 21.875 L 23.828125 21.875 C 24.476562 21.875 25 21.351562 25 20.703125 C 25 20.054688 24.476562 19.53125 23.828125 19.53125 Z M 1.171875 19.53125 "/>
</g>
</svg>
