<?xml version="1.0" encoding="UTF-8"?>
<svg xmlns="http://www.w3.org/2000/svg" xmlns:xlink="http://www.w3.org/1999/xlink" width="25px" height="24px" viewBox="0 0 25 24" version="1.1">
<g id="surface1">
<path style=" stroke:none;fill-rule:evenodd;fill:rgb(0%,0%,0%);fill-opacity:1;" d="M 7.5 22.109375 L 7.261719 16.070312 L 9.953125 15.960938 C 11.101562 16.121094 12.265625 16.699219 13.4375 17.378906 L 15.527344 17.296875 C 16.472656 17.316406 17.007812 18.261719 16.113281 18.933594 C 15.402344 19.507812 14.433594 19.515625 13.4375 19.464844 C 12.753906 19.457031 12.761719 20.386719 13.472656 20.359375 C 13.71875 20.371094 13.988281 20.300781 14.222656 20.289062 C 15.460938 20.238281 16.46875 19.960938 17.054688 18.949219 L 17.335938 18.199219 L 20.386719 16.515625 C 21.921875 15.9375 22.957031 17.398438 21.855469 18.585938 C 19.667969 20.332031 17.550781 21.921875 15.230469 23.113281 C 13.554688 24.234375 11.839844 24.269531 10.082031 23.320312 Z M 6.0625 12.90625 L 24.726562 12.90625 C 24.863281 12.90625 24.976562 13.023438 24.976562 13.160156 L 24.976562 14.269531 C 24.976562 14.40625 24.863281 14.523438 24.726562 14.523438 L 6.0625 14.523438 C 5.921875 14.523438 5.808594 14.410156 5.808594 14.269531 L 5.808594 13.160156 C 5.808594 13.023438 5.921875 12.90625 6.0625 12.90625 Z M 16.121094 2.300781 C 21.230469 2.714844 25.53125 7.050781 24.898438 12.152344 L 5.894531 12.152344 C 5.265625 7.015625 9.585938 2.675781 14.730469 2.296875 L 14.730469 1.464844 L 13.917969 1.464844 C 13.777344 1.464844 13.660156 1.34375 13.660156 1.199219 L 13.660156 0.261719 C 13.660156 0.117188 13.777344 0 13.917969 0 L 16.910156 0 C 17.050781 0 17.167969 0.117188 17.167969 0.261719 L 17.167969 1.199219 C 17.167969 1.34375 17.050781 1.464844 16.910156 1.464844 L 16.121094 1.464844 Z M 0.0234375 15.863281 L 6.429688 15.523438 L 6.714844 22.746094 L 0.304688 23.085938 Z M 0.0234375 15.863281 "/>
</g>
</svg>
