<?xml version="1.0" encoding="UTF-8"?>
<svg xmlns="http://www.w3.org/2000/svg" xmlns:xlink="http://www.w3.org/1999/xlink" width="25px" height="25px" viewBox="0 0 25 25" version="1.1">
<g id="surface1">
<path style=" stroke:none;fill-rule:nonzero;fill:rgb(0%,0%,0%);fill-opacity:1;" d="M 14.046875 13.839844 C 13.414062 13.839844 12.523438 14.351562 12.515625 14.980469 C 12.511719 14.351562 11.617188 13.839844 10.988281 13.839844 C 10.351562 13.839844 10.414062 14.355469 10.414062 14.988281 C 10.414062 15.621094 10.351562 16.136719 10.988281 16.136719 C 11.621094 16.136719 12.511719 15.625 12.515625 14.996094 C 12.523438 15.625 13.414062 16.136719 14.046875 16.136719 C 14.683594 16.136719 14.621094 15.621094 14.621094 14.988281 C 14.621094 14.355469 14.683594 13.839844 14.046875 13.839844 Z M 14.046875 13.839844 "/>
<path style=" stroke:none;fill-rule:nonzero;fill:rgb(0%,0%,0%);fill-opacity:1;" d="M 15.824219 14.035156 C 15.578125 13.636719 15.355469 13.039062 15.246094 12.492188 C 15.8125 11.925781 16.292969 11.21875 16.664062 10.460938 C 17.84375 10.324219 18.613281 8.617188 18.613281 7.601562 C 18.613281 6.851562 18.242188 6.417969 17.476562 6.203125 L 17.476562 5.226562 C 17.476562 2.476562 15.246094 0.25 12.5 0.25 C 9.753906 0.25 7.523438 2.476562 7.523438 5.226562 L 7.523438 6.214844 C 6.757812 6.433594 6.398438 6.863281 6.398438 7.605469 C 6.398438 8.609375 7.148438 10.289062 8.308594 10.460938 C 8.675781 11.21875 9.160156 11.925781 9.726562 12.496094 C 9.617188 13.039062 9.390625 13.640625 9.144531 14.039062 C 6.6875 14.136719 4.074219 15.421875 4.074219 17.863281 L 4.074219 21.117188 C 4.078125 23.648438 8.050781 24.75 10.585938 24.75 L 14.414062 24.75 C 16.949219 24.75 20.921875 23.648438 20.921875 21.113281 L 20.921875 17.859375 C 20.921875 15.410156 18.289062 14.121094 15.824219 14.035156 Z M 7.90625 23.601562 C 6.285156 23.148438 4.84375 22.300781 4.84375 21.113281 L 4.84375 17.859375 C 4.84375 16.988281 5.296875 16.296875 5.992188 15.789062 C 5.992188 15.789062 7.90625 15.074219 7.90625 18.242188 C 7.90625 20.84375 7.90625 23.601562 7.90625 23.601562 Z M 17.460938 7.332031 L 17.476562 7.332031 L 17.476562 7.011719 C 17.671875 7.113281 17.847656 7.257812 17.847656 7.605469 C 17.847656 8.132812 17.550781 9.058594 17.074219 9.484375 C 17.320312 8.753906 17.457031 8.011719 17.460938 7.332031 Z M 7.164062 7.601562 C 7.164062 7.269531 7.332031 7.125 7.523438 7.023438 L 7.523438 7.332031 L 7.511719 7.332031 C 7.515625 7.992188 7.648438 8.707031 7.882812 9.414062 C 7.4375 8.96875 7.164062 8.105469 7.164062 7.601562 Z M 8.289062 7.328125 L 8.289062 6.769531 C 11.734375 6.683594 14.023438 4.699219 14.023438 4.699219 C 14.746094 5.539062 15.753906 6.195312 16.699219 6.542969 L 16.699219 7.328125 C 16.679688 9.824219 14.640625 13.039062 12.492188 13.039062 C 10.34375 13.039062 8.289062 9.824219 8.289062 7.328125 Z M 12.546875 22.453125 C 12.332031 22.453125 12.164062 22.28125 12.164062 22.070312 C 12.164062 21.859375 12.335938 21.6875 12.546875 21.6875 C 12.757812 21.6875 12.925781 21.859375 12.925781 22.070312 C 12.925781 22.28125 12.757812 22.453125 12.546875 22.453125 Z M 12.546875 20.921875 C 12.332031 20.921875 12.164062 20.75 12.164062 20.539062 C 12.164062 20.328125 12.335938 20.15625 12.546875 20.15625 C 12.757812 20.15625 12.925781 20.328125 12.925781 20.539062 C 12.925781 20.75 12.757812 20.921875 12.546875 20.921875 Z M 12.535156 19.371094 C 11.945312 19.371094 9.855469 15.925781 9.855469 14.445312 C 9.855469 12.964844 11.054688 13.75 12.535156 13.75 C 14.015625 13.75 15.214844 12.964844 15.214844 14.445312 C 15.214844 15.921875 13.125 19.371094 12.535156 19.371094 Z M 20.15625 21.113281 C 20.15625 22.300781 18.71875 23.148438 17.09375 23.601562 C 17.09375 23.601562 17.09375 20.839844 17.09375 18.238281 C 17.09375 15.070312 19.011719 15.789062 19.011719 15.789062 C 19.703125 16.296875 20.15625 16.988281 20.15625 17.859375 Z M 20.15625 21.113281 "/>
</g>
</svg>
