<svg width="20" height="20" viewBox="0 0 20 20" fill="none" xmlns="http://www.w3.org/2000/svg">
<g clip-path="url(#clip0_1_2)">
<path d="M0 2.92969L6.18106e-07 17.0703C6.88713e-07 18.6856 1.31439 20 2.92969 20H17.0703C18.6856 20 20 18.6856 20 17.0703V11.1719H12.9297V13.5156H9.41406V11.1719H7.03125C5.09262 11.1719 3.51562 9.59488 3.51562 7.65625V4.10156H7.03125V7.65625H9.41406V4.10156L12.9297 4.6875V7.65625H20V2.92969C20 1.31439 18.6856 -7.0607e-08 17.0703 0L2.92969 6.18106e-07C1.31439 6.88713e-07 -7.0607e-08 1.31439 0 2.92969Z" fill="#E8E8E8"/>
</g>
<defs>
<clipPath id="clip0_1_2">
<rect width="20" height="20" fill="white"/>
</clipPath>
</defs>
</svg>
